# xmcd CD database file
#
# Track frame offsets:
#	150
#	16089
#	33264
#	58405
#	81268
#	96964
#	113651
#	130420
#	153620
#	177842
#
# Disc length: 2644 seconds
#
# Revision: 1
# Processed by: cddbd v1.5.1PL0 Copyright (c) Steve Scherf et al.
# Submitted via: CDex 1.51
#
DISCID=7e0a520a
DTITLE=GUST - フォルクスリート
DYEAR=2005
DGENRE=Vocal
TTITLE0=井上あずみ/大いなる作業
TTITLE1=霜月はるか/バウムクーヘン
TTITLE2=太田富希子/ETERNAL STORY
TTITLE3=景家淳 and 太田富希子/毎日がカーニバル
TTITLE4=高橋美紀/風のフォルトーネ
TTITLE5=高橋美紀/IRIS
TTITLE6=霜月はるか/郷里はるか
TTITLE7=太田富希子/ボクの決意
TTITLE8=景家淳/雪と思い出
TTITLE9=北原拓/旅立ちの扉
EXTD=YEAR: 2005
EXTT0=
EXTT1=
EXTT2=
EXTT3=
EXTT4=
EXTT5=
EXTT6=
EXTT7=
EXTT8=
EXTT9=
PLAYORDER=
